<?xml version="1.0" standalone="no"?>
<!DOCTYPE svg PUBLIC "-//W3C//DTD SVG 20010904//EN"
 "http://www.w3.org/TR/2001/REC-SVG-20010904/DTD/svg10.dtd">
<svg version="1.0" xmlns="http://www.w3.org/2000/svg"
 width="2400.000000pt" height="2400.000000pt" viewBox="0 0 2400.000000 2400.000000"
 preserveAspectRatio="xMidYMid meet">

<g transform="translate(0.000000,2400.000000) scale(0.100000,-0.100000)"
fill="#000000" stroke="none">
<path d="M3510 20645 l-2415 -2415 2983 -2983 2982 -2982 -2982 -2983 -2983
-2982 2418 -2417 2417 -2418 2982 2983 2983 2982 2982 -2982 2983 -2983 2417
2418 2418 2417 -2983 2982 -2982 2983 2982 2982 2983 2983 -2418 2417 -2417
2418 -2983 -2983 -2982 -2982 -2980 2980 c-1639 1639 -2982 2980 -2985 2980
-3 0 -1092 -1087 -2420 -2415z"/>
</g>
</svg>
