<?xml version="1.0" standalone="no"?>
<!DOCTYPE svg PUBLIC "-//W3C//DTD SVG 20010904//EN"
 "http://www.w3.org/TR/2001/REC-SVG-20010904/DTD/svg10.dtd">
<svg version="1.0" xmlns="http://www.w3.org/2000/svg"
 width="512.000000pt" height="512.000000pt" viewBox="0 0 512.000000 512.000000"
 preserveAspectRatio="xMidYMid meet">

<g transform="translate(0.000000,512.000000) scale(0.100000,-0.100000)"
fill="#000000" stroke="none">
<path d="M505 5104 c-192 -41 -363 -179 -446 -360 -63 -137 -60 -34 -57 -2074
l3 -1855 27 -97 c49 -178 142 -334 272 -456 119 -111 254 -186 414 -230 l97
-27 1745 0 1745 0 97 27 c160 44 295 119 414 230 130 122 223 278 272 456 l27
97 3 1350 2 1350 -320 -320 -320 -320 -2 -1000 -3 -1000 -25 -50 c-31 -64 -91
-124 -155 -155 l-50 -25 -1685 0 -1685 0 -50 25 c-64 31 -124 92 -156 155
l-24 50 -3 1803 -2 1802 1117 0 1118 0 320 320 320 320 -1470 -1 c-1260 -1
-1480 -3 -1540 -15z"/>
<path d="M4220 5107 c-27 -8 -286 -260 -1162 -1136 -621 -619 -1128 -1130
-1128 -1136 0 -5 201 -211 448 -458 l447 -447 1127 1128 c619 620 1134 1142
1143 1161 12 24 16 50 13 88 l-5 55 -364 365 c-202 203 -378 371 -396 379 -37
16 -73 16 -123 1z"/>
<path d="M1666 2620 c-12 -33 -315 -1255 -312 -1258 5 -4 1266 312 1266 318 0
3 -214 219 -475 480 -314 314 -476 469 -479 460z"/>
</g>
</svg>
